<svg xmlns="http://www.w3.org/2000/svg" width="304.213" height="224.437" viewBox="0 0 80.49 59.382"><path d="M356.574-61.15h174.744V84.485H356.574z" style="fill:#fff;fill-opacity:1;stroke:#224c58;stroke-width:1.265;stroke-linecap:round;stroke-opacity:1;paint-order:stroke fill markers" transform="translate(-397.204 21.765)"/><path d="M419.006-21.765v6.318s.918-1.701 2.799-3.582c1.88-1.88 4.048-2.736 4.048-2.736zm18.209.003c-9.906.116-17.944 7.415-18.209 16.535-.002.15 0 17.436 0 17.436h18.584c10.129-.076 18.298-7.657 18.3-16.986l.002-16.985h-18.679zm.345 4.88c2.93 0 6.693 1.349 7.159 1.592v5.416c-1.257-.426-3.385-.866-4.328-1.046a12.58 12.58 0 0 0-2.696-.302c-1.482 0-2.223.402-2.223 1.21 0 .404.239.754.71 1.046.494.27 1.492.616 2.996 1.043 2.357.628 4.141 1.595 5.354 2.897 1.212 1.28 1.818 2.818 1.818 4.613 0 2.492-.807 4.412-2.424 5.759-1.616 1.324-4.006 1.986-7.172 1.986-3.165 0-5.985-.876-6.945-1.43V.041c2.312.83 4.992 1.565 6.81 1.565.988 0 1.705-.111 2.154-.336.472-.247.707-.607.707-1.078 0-.315-.124-.585-.371-.81-.247-.246-.74-.513-1.48-.805-.74-.292-1.853-.652-3.335-1.079-1.818-.539-3.232-1.415-4.242-2.627-1.01-1.235-1.516-2.648-1.516-4.242 0-2.47.808-4.334 2.424-5.59 1.639-1.28 3.839-1.921 6.6-1.921zm18.333 22.773s-.885 1.675-2.795 3.585-4.051 2.733-4.051 2.733h6.846z" style="fill:#224c58;fill-opacity:1;stroke-width:.220843" transform="translate(-397.204 21.765)"/><path d="M92.355 514.165q-7.52 0-12.694-2.774l2.667-8.266q5.493 1.973 9.813 1.973 2.347 0 3.414-.533 1.12-.587 1.12-1.707 0-.747-.587-1.28-.587-.587-2.347-1.28-1.76-.693-5.28-1.707-4.32-1.28-6.72-4.16-2.4-2.933-2.4-6.72 0-5.866 3.84-8.853 3.894-3.04 10.454-3.04 3.413 0 6.72.747 3.306.693 5.866 2.08l-2.88 8.053q-2.986-1.013-5.226-1.44-2.187-.48-4.267-.48-3.52 0-3.52 1.92 0 .96 1.12 1.653 1.173.64 4.747 1.654 5.6 1.493 8.48 4.586 2.88 3.04 2.88 7.307 0 5.92-3.84 9.12-3.84 3.147-11.36 3.147zm38.026 0q-5.76 0-10.24-2.454-4.426-2.453-6.933-6.773-2.453-4.373-2.453-9.92 0-5.6 2.453-9.973 2.507-4.374 6.933-6.774 4.48-2.453 10.24-2.453t10.187 2.453q4.48 2.4 6.933 6.774 2.507 4.32 2.507 9.973 0 5.547-2.507 9.92-2.453 4.32-6.933 6.773-4.48 2.454-10.187 2.454zm0-9.707q3.36 0 5.494-2.613 2.186-2.614 2.186-6.88 0-2.827-1.013-5.014-.96-2.24-2.72-3.466-1.76-1.28-4-1.28-2.187 0-3.947 1.28-1.76 1.226-2.72 3.466-.96 2.187-.96 5.014 0 4.266 2.134 6.88 2.133 2.613 5.546 2.613zm24.747-27.84h25.28v8.107h-13.813v7.413h12.8v6.72h-12.8v14.453h-11.467zm36.107 8.107h-7.627v-8.107h27.68v8.107h-7.627v28.586h-12.426zm25.066-8.107h11.094l9.173 17.813 8.96-17.813h11.093v36.693h-11.093v-19.573l-6.773 12.8h-4.534l-6.826-12.8v19.573H216.3zm65.12 37.547q-5.76 0-10.24-2.454-4.427-2.453-6.933-6.773-2.454-4.373-2.454-9.92 0-5.6 2.454-9.973 2.506-4.374 6.933-6.774 4.48-2.453 10.24-2.453t10.187 2.453q4.48 2.4 6.933 6.774 2.507 4.32 2.507 9.973 0 5.547-2.507 9.92-2.453 4.32-6.933 6.773-4.48 2.454-10.187 2.454zm0-9.707q3.36 0 5.493-2.613 2.187-2.614 2.187-6.88 0-2.827-1.013-5.014-.96-2.24-2.72-3.466-1.76-1.28-4-1.28-2.187 0-3.947 1.28-1.76 1.226-2.72 3.466-.96 2.187-.96 5.014 0 4.266 2.133 6.88 2.134 2.613 5.547 2.613zm24.747-27.84h10.72l14.613 19.787v-19.787h9.547v36.693H330.38l-14.72-19.093v19.093h-9.493zm41.813 0h15.947q5.76 0 10.186 2.293 4.48 2.294 6.934 6.4 2.506 4.107 2.506 9.387 0 5.547-2.453 9.76-2.4 4.213-6.88 6.56-4.427 2.293-10.293 2.293H347.98zm15.413 27.093q4 0 6.08-2.506 2.134-2.56 2.134-6.614 0-3.84-2.08-6.08-2.027-2.293-6.134-2.293h-3.626v17.493z" aria-label="SOFTMOND" style="-inkscape-font-specification:&quot;Paytone One&quot;;fill:#224c58" transform="matrix(.26458 0 0 .26458 -20.992 -86.44)"/><path d="M827.557 154.776q-3.384 0-5.712-1.248l1.2-3.72q2.472.888 4.416.888 1.056 0 1.536-.24.504-.264.504-.768 0-.336-.264-.576-.264-.264-1.056-.576-.792-.312-2.376-.768-1.944-.576-3.024-1.872-1.08-1.32-1.08-3.024 0-2.64 1.728-3.984 1.752-1.368 4.704-1.368 1.536 0 3.024.336 1.488.312 2.64.936l-1.296 3.624q-1.344-.456-2.352-.648-.984-.216-1.92-.216-1.584 0-1.584.864 0 .432.504.744.528.288 2.136.744 2.52.672 3.816 2.064 1.296 1.368 1.296 3.288 0 2.664-1.728 4.104-1.728 1.416-5.112 1.416zm15.048-.192q-2.016 0-3.6-.792-1.56-.792-2.448-2.184-.864-1.416-.864-3.24 0-1.824.888-3.216.888-1.416 2.448-2.184 1.584-.768 3.6-.768 2.04 0 3.6.792 1.584.768 2.448 2.16.864 1.392.864 3.216 0 1.848-.888 3.264-.864 1.392-2.448 2.184-1.56.768-3.6.768zm.048-3.6q.984 0 1.608-.72.648-.744.648-1.896t-.648-1.872q-.624-.744-1.608-.744-.984 0-1.632.744-.624.72-.624 1.872 0 1.152.624 1.896.648.72 1.632.72zm12.912 3.6q-2.04 0-3.168-1.272-1.104-1.296-1.104-3.528v-11.208l5.064-.744v11.592q0 .672.312.984.336.288 1.152.288.6 0 1.176-.288l.168 3.36q-1.608.816-3.6.816zm11.232 0q-1.896 0-3.384-.672-1.464-.672-2.28-1.896-.816-1.224-.816-2.784v-6.864h4.944v6.792q0 .792.432 1.248.456.432 1.128.432.648 0 1.056-.432.432-.456.432-1.248v-6.792h4.848v6.864q0 1.584-.816 2.808-.792 1.2-2.232 1.872-1.44.672-3.312.672zm14.616 0q-1.92 0-3.408-.768-1.464-.792-2.304-2.208-.816-1.416-.816-3.216 0-1.728.864-3.144.864-1.416 2.352-2.232 1.488-.816 3.312-.816 2.328 0 3.672.96l-.456 3.192q-1.368-.408-2.256-.408-1.152 0-1.824.672-.672.648-.672 1.776 0 1.128.672 1.8.672.672 1.776.672.96 0 2.256-.408l.456 3.36q-.816.408-1.656.576-.84.192-1.968.192zm9.624 0q-2.016 0-3.144-1.296-1.128-1.296-1.128-3.528v-7.392h5.088v7.176q0 .552.288.864.312.288.792.288.48 0 .984-.288l.264 3.336q-.528.408-1.392.624-.84.216-1.752.216zm-1.728-14.016q-1.128 0-1.92-.696-.768-.72-.768-1.752t.816-1.728q.816-.696 1.872-.696 1.104 0 1.896.72.816.72.816 1.704 0 1.056-.816 1.752t-1.896.696zm12.576 14.016q-2.016 0-3.6-.792-1.56-.792-2.448-2.184-.864-1.416-.864-3.24 0-1.824.888-3.216.888-1.416 2.448-2.184 1.584-.768 3.6-.768 2.04 0 3.6.792 1.584.768 2.448 2.16.864 1.392.864 3.216 0 1.848-.888 3.264-.864 1.392-2.448 2.184-1.56.768-3.6.768zm.048-3.6q.984 0 1.608-.72.648-.744.648-1.896t-.648-1.872q-.624-.744-1.608-.744-.984 0-1.632.744-.624.72-.624 1.872 0 1.152.624 1.896.648.72 1.632.72zm8.688-8.448h4.824v2.448q1.392-2.784 4.416-2.784 2.304 0 3.6 1.656 1.32 1.632 1.32 4.536v6h-5.04v-6.504q0-1.032-.456-1.584-.432-.552-1.224-.552-.576 0-1.128.384-.552.36-.912 1.056-.336.696-.336 1.584v5.616h-5.064zm22.704 12.048q-1.992 0-3.552-.792-1.536-.816-2.4-2.208-.864-1.416-.864-3.192 0-1.824.888-3.24.888-1.416 2.4-2.184 1.512-.768 3.36-.768 1.776 0 3.024.792 1.272.768 1.896 2.112.624 1.32.624 2.976 0 .432-.048.624l-7.2.936q.288.84.936 1.224.648.36 1.704.36 1.632 0 3.528-.84l.6 3.216q-2.232.984-4.896.984zm1.656-7.968q-.384-1.512-1.824-1.512-.864 0-1.368.648-.504.648-.528 1.68zm9.624 7.968q-2.52 0-4.416-.744l.552-2.856q1.728.624 3.36.624 1.2 0 1.2-.672 0-.336-.36-.552-.336-.216-1.296-.384-1.992-.384-2.88-1.296-.864-.912-.864-2.592.096-1.896 1.512-2.904t3.864-1.008q1.248 0 2.136.168.912.144 1.656.504l-.504 2.856q-.696-.264-1.536-.408-.816-.144-1.368-.144-.816 0-1.128.168-.312.168-.312.456 0 .528 1.2.744 2.184.384 3.264 1.344 1.08.96 1.08 2.616 0 1.896-1.344 3-1.32 1.08-3.816 1.08zm15.648 0q-2.016 0-3.144-1.296-1.128-1.296-1.128-3.528v-7.392h5.088v7.176q0 .552.288.864.312.288.792.288.48 0 .984-.288l.264 3.336q-.528.408-1.392.624-.84.216-1.752.216zm-1.728-14.016q-1.128 0-1.92-.696-.768-.72-.768-1.752t.816-1.728q.816-.696 1.872-.696 1.104 0 1.896.72.816.72.816 1.704 0 1.056-.816 1.752t-1.896.696zm6.264 1.968h4.824v2.448q1.392-2.784 4.416-2.784 2.304 0 3.6 1.656 1.32 1.632 1.32 4.536v6h-5.04v-6.504q0-1.032-.456-1.584-.432-.552-1.224-.552-.576 0-1.128.384-.552.36-.912 1.056-.336.696-.336 1.584v5.616h-5.064zm17.28 2.808h-1.512v-2.976h1.512v-1.008q0-2.664 1.272-4.032 1.296-1.368 3.6-1.368 1.848 0 3.432.936l-.168 3.24q-1.392-.552-2.328-.552-.72 0-1.104.36-.384.336-.384.984 0 .624.408 1.44h3.36v2.976h-3.024v9.048h-5.064zm15.552 9.24q-2.016 0-3.6-.792-1.56-.792-2.448-2.184-.864-1.416-.864-3.24 0-1.824.888-3.216.888-1.416 2.448-2.184 1.584-.768 3.6-.768 2.04 0 3.6.792 1.584.768 2.448 2.16.864 1.392.864 3.216 0 1.848-.888 3.264-.864 1.392-2.448 2.184-1.56.768-3.6.768zm.048-3.6q.984 0 1.608-.72.648-.744.648-1.896t-.648-1.872q-.624-.744-1.608-.744-.984 0-1.632.744-.624.72-.624 1.872 0 1.152.624 1.896.648.72 1.632.72zm8.688-8.448h5.064v2.448q.552-1.416 1.488-2.088.96-.696 2.232-.696l.696 3.912q-2.28 0-3.36.504-1.056.48-1.056 1.536v6.24h-5.064zm10.704 0h4.824v2.448q.816-1.416 1.848-2.088 1.056-.696 2.496-.696 1.416 0 2.448.72 1.056.696 1.584 1.896 1.536-2.616 4.464-2.616 1.392 0 2.424.744 1.056.744 1.632 2.16.576 1.392.576 3.288v6h-5.064v-6q0-1.224-.432-1.848-.408-.624-1.152-.624-.816 0-1.416.696-.576.696-.576 1.68v6.096h-5.016v-6q0-1.224-.432-1.848-.408-.624-1.176-.624-.816 0-1.392.696t-.576 1.68v6.096h-5.064zm29.928 12.048q-1.56 0-2.928-.816-1.344-.84-2.16-2.256-.816-1.44-.816-3.192 0-1.728.816-3.12.816-1.416 2.184-2.208 1.368-.792 2.904-.792 1.248 0 2.304.696 1.08.696 1.632 2.088V142.2h5.04v12.192h-5.04v-2.232q-1.2 2.424-3.936 2.424zm1.56-3.792q.96 0 1.632-.672.696-.696.744-1.632v-.192q-.048-.96-.768-1.632-.696-.672-1.608-.672-1.008 0-1.728.72-.696.696-.696 1.68 0 1.008.72 1.704t1.704.696zm-3.84-12.792 7.032-4.92 2.424 4.296-7.992 3.192zm18.936 16.584q-2.112 0-3.288-1.2-1.176-1.224-1.176-3.36v-4.68h-1.536v-2.976h1.896l2.232-4.536h2.424v4.536h2.784v2.976h-2.784v4.08q0 .6.384.936.384.336 1.08.336.648 0 1.176-.288l.192 3.36q-.6.36-1.56.6-.936.216-1.824.216zm9.408 0q-2.016 0-3.144-1.296-1.128-1.296-1.128-3.528v-7.392h5.088v7.176q0 .552.288.864.312.288.792.288.48 0 .984-.288l.264 3.336q-.528.408-1.392.624-.84.216-1.752.216zm-1.728-14.016q-1.128 0-1.92-.696-.768-.72-.768-1.752t.816-1.728q.816-.696 1.872-.696 1.104 0 1.896.72.816.72.816 1.704 0 1.056-.816 1.752t-1.896.696zm12.192 14.016q-1.92 0-3.408-.768-1.464-.792-2.304-2.208-.816-1.416-.816-3.216 0-1.728.864-3.144.864-1.416 2.352-2.232 1.488-.816 3.312-.816 2.328 0 3.672.96l-.456 3.192q-1.368-.408-2.256-.408-1.152 0-1.824.672-.672.648-.672 1.776 0 1.128.672 1.8.672.672 1.776.672.96 0 2.256-.408l.456 3.36q-.816.408-1.656.576-.84.192-1.968.192zm10.56 0q-1.56 0-2.928-.816-1.344-.84-2.16-2.256-.816-1.44-.816-3.192 0-1.728.816-3.12.816-1.416 2.184-2.208 1.368-.792 2.904-.792 1.248 0 2.304.696 1.08.696 1.632 2.088V142.2h5.04v12.192h-5.04v-2.232q-1.2 2.424-3.936 2.424zm1.56-3.792q.96 0 1.632-.672.696-.696.744-1.632v-.192q-.048-.96-.768-1.632-.696-.672-1.608-.672-1.008 0-1.728.72-.696.696-.696 1.68 0 1.008.72 1.704t1.704.696zm13.992 3.792q-2.52 0-4.416-.744l.552-2.856q1.728.624 3.36.624 1.2 0 1.2-.672 0-.336-.36-.552-.336-.216-1.296-.384-1.992-.384-2.88-1.296-.864-.912-.864-2.592.096-1.896 1.512-2.904t3.864-1.008q1.248 0 2.136.168.912.144 1.656.504l-.504 2.856q-.696-.264-1.536-.408-.816-.144-1.368-.144-.816 0-1.128.168-.312.168-.312.456 0 .528 1.2.744 2.184.384 3.264 1.344 1.08.96 1.08 2.616 0 1.896-1.344 3-1.32 1.08-3.816 1.08z" aria-label="Soluciones informáticas" style="-inkscape-font-specification:&quot;Paytone One&quot;;fill:#224c58" transform="matrix(.26458 0 0 .26458 -215.937 18.431)"/></svg>
