<svg xmlns="http://www.w3.org/2000/svg" width="139.42" height="128.405" viewBox="0 0 36.888 33.974"><path d="M356.574-61.15h174.744V84.485H356.574z" style="fill:#fff;fill-opacity:1;stroke:#224c58;stroke-width:1.265;stroke-linecap:round;stroke-opacity:1;paint-order:stroke fill markers" transform="translate(-419.005 21.765)"/><path d="M419.006-21.765v6.318s.918-1.701 2.799-3.582c1.88-1.88 4.048-2.736 4.048-2.736zm18.209.003c-9.906.116-17.944 7.415-18.209 16.535-.002.15 0 17.436 0 17.436h18.584c10.129-.076 18.298-7.657 18.3-16.986l.002-16.985h-18.679zm.345 4.88c2.93 0 6.693 1.349 7.159 1.592v5.416c-1.257-.426-3.385-.866-4.328-1.046a12.58 12.58 0 0 0-2.696-.302c-1.482 0-2.223.402-2.223 1.21 0 .404.239.754.71 1.046.494.27 1.492.616 2.996 1.043 2.357.628 4.141 1.595 5.354 2.897 1.212 1.28 1.818 2.818 1.818 4.613 0 2.492-.807 4.412-2.424 5.759-1.616 1.324-4.006 1.986-7.172 1.986-3.165 0-5.985-.876-6.945-1.43V.041c2.312.83 4.992 1.565 6.81 1.565.988 0 1.705-.111 2.154-.336.472-.247.707-.607.707-1.078 0-.315-.124-.585-.371-.81-.247-.246-.74-.513-1.48-.805-.74-.292-1.853-.652-3.335-1.079-1.818-.539-3.232-1.415-4.242-2.627-1.01-1.235-1.516-2.648-1.516-4.242 0-2.47.808-4.334 2.424-5.59 1.639-1.28 3.839-1.921 6.6-1.921zm18.333 22.773s-.885 1.675-2.795 3.585-4.051 2.733-4.051 2.733h6.846z" style="fill:#224c58;fill-opacity:1;stroke-width:.220843" transform="translate(-419.005 21.765)"/></svg>